<svg width="20" height="20" viewBox="0 0 20 20" fill="none" xmlns="http://www.w3.org/2000/svg">
<path d="M5.83398 7.5V12.5" stroke="white" stroke-width="1.25" stroke-linecap="round" stroke-linejoin="round"/>
<path d="M5.83333 7.49967H5C4.22343 7.49967 3.83515 7.49967 3.52886 7.62654C3.12048 7.7957 2.79603 8.12016 2.62687 8.52851C2.5 8.83484 2.5 9.22309 2.5 9.99967C2.5 10.7763 2.5 11.1645 2.62687 11.4708C2.79603 11.8792 3.12048 12.2037 3.52886 12.3728C3.83515 12.4997 4.22343 12.4997 5 12.4997H5.83333L12.5663 14.5196C13.3576 14.7569 13.7532 14.8757 14.1047 15.0842L14.1216 15.0943C14.4719 15.3049 14.7639 15.5969 15.3481 16.1811L15.4882 16.3212C15.5876 16.4206 15.6372 16.4703 15.6925 16.5099C15.7967 16.5848 15.9169 16.6346 16.0436 16.6553C16.1106 16.6663 16.1809 16.6663 16.3215 16.6663C16.6427 16.6663 16.8034 16.6663 16.933 16.6226C17.1796 16.5394 17.3731 16.3459 17.4562 16.0993C17.5 15.9698 17.5 15.8091 17.5 15.4878V4.51152C17.5 4.19022 17.5 4.02958 17.4562 3.9C17.3731 3.65344 17.1796 3.45988 16.933 3.37672C16.8034 3.33301 16.6427 3.33301 16.3215 3.33301C16.1809 3.33301 16.1106 3.33301 16.0436 3.34401C15.9169 3.3648 15.7967 3.41457 15.6925 3.48943C15.6372 3.52906 15.5876 3.57877 15.4882 3.67818L15.3481 3.81826C14.7639 4.40239 14.4719 4.69446 14.1216 4.90508L14.1047 4.91514C13.7532 5.12371 13.3576 5.24239 12.5663 5.47977L5.83333 7.49967Z" stroke="white" stroke-width="1.25" stroke-linecap="round" stroke-linejoin="round"/>
<path d="M6.66602 12.917V15.0385C6.66602 15.9379 7.39511 16.667 8.29448 16.667C8.83893 16.667 9.34743 16.3949 9.64943 15.9418L10.8327 14.167" stroke="white" stroke-width="1.25" stroke-linecap="round" stroke-linejoin="round"/>
</svg>
