<svg width="32" height="32" viewBox="0 0 32 32" fill="none" xmlns="http://www.w3.org/2000/svg">
<g clip-path="url(#clip0_3_10309)">
<path d="M32 15.9998C32.0057 19.5275 30.84 22.9572 28.6858 25.7507C28.3675 26.165 28.0293 26.5629 27.6714 26.9443C26.1749 28.5403 24.3671 29.8125 22.3595 30.6822C20.3519 31.5519 18.1873 32.0006 15.9995 32.0006C13.8116 32.0006 11.647 31.5519 9.63948 30.6822C7.63191 29.8125 5.82404 28.5403 4.3276 26.9443C3.97105 26.5626 3.63315 26.1649 3.31392 25.751C1.15995 22.9573 -0.00564023 19.5275 2.05217e-05 15.9998C2.05217e-05 7.16334 7.16336 0 15.9998 0C24.8363 0 32 7.16334 32 15.9998Z" fill="#CCCCCC"/>
<path d="M28.6853 25.7505C28.367 26.1648 28.0289 26.5627 27.6709 26.9441C26.1745 28.5402 24.3666 29.8124 22.3591 30.682C20.3515 31.5517 18.1869 32.0004 15.999 32.0004C13.8112 32.0004 11.6466 31.5517 9.63903 30.682C7.63147 29.8124 5.82359 28.5402 4.32715 26.9441C3.9706 26.5625 3.63271 26.1647 3.31348 25.7509C3.48635 25.0928 3.69198 24.427 4.13949 23.92C4.71375 23.2697 5.58694 22.988 6.41683 22.7335L12.4214 20.892C12.6087 20.3991 12.7954 19.6333 12.8552 18.4907C12.4109 17.9865 12.0387 17.4345 11.8465 16.9521C11.5994 16.3216 11.4707 15.6509 11.4669 14.9737C11.3884 15.1173 11.2014 15.1923 11.037 15.1613C10.8529 15.1261 10.7032 14.9853 10.6145 14.8198C10.5258 14.6543 10.4902 14.4677 10.4606 14.2829C10.3564 13.6393 10.3109 12.9876 10.3247 12.3358C10.3303 12.058 10.3909 11.7186 10.6536 11.6291C10.7764 11.5876 10.9131 11.6175 11.0264 11.6827C10.9676 10.5524 10.9705 9.41982 11.0349 8.28989C11.068 7.62091 11.124 6.92975 11.4525 6.34739C11.756 5.80904 12.2658 5.40272 12.8316 5.15414C13.1362 5.02263 13.4498 4.91297 13.7699 4.82599C15.2878 4.40092 16.8955 4.41765 18.4042 4.87423C18.6634 4.95264 18.9178 5.0461 19.1661 5.15414C19.7319 5.40272 20.2418 5.80904 20.5449 6.34739C20.8734 6.92975 20.9298 7.62197 20.9629 8.28989C21.0273 9.41982 21.0301 10.5524 20.9713 11.6827C21.0847 11.6175 21.2213 11.5876 21.3438 11.6291C21.6068 11.7186 21.6674 12.058 21.673 12.3358C21.6868 12.9876 21.6413 13.6393 21.5371 14.2829C21.5075 14.4674 21.4716 14.655 21.3833 14.8198C21.2949 14.9846 21.1452 15.1265 20.9607 15.1613C20.7963 15.1923 20.6087 15.1173 20.5305 14.9737C20.5268 15.6509 20.3983 16.3216 20.1513 16.9521C19.959 17.4334 19.5879 17.9865 19.1422 18.4907C19.2024 19.6333 19.3886 20.3973 19.576 20.892L25.5809 22.7331C26.4104 22.9877 27.284 23.2693 27.8583 23.9197C28.3079 24.427 28.5131 25.0925 28.6853 25.7505Z" fill="white"/>
</g>
<defs>
<clipPath id="clip0_3_10309">
<rect width="32" height="32" fill="white"/>
</clipPath>
</defs>
</svg>
