<svg width="24" height="24" viewBox="0 0 24 24" fill="none" xmlns="http://www.w3.org/2000/svg">
<rect width="24" height="24" rx="12" fill="#07B463"/>
<path d="M14.1421 7.98858L15.0765 7.05408C15.5927 6.53796 16.4295 6.53796 16.9456 7.05408C17.4617 7.57019 17.4617 8.40698 16.9456 8.92309L16.0111 9.8576M14.1421 7.98858L8.65284 13.4779C7.95597 14.1747 7.60752 14.5231 7.37026 14.9477C7.133 15.3723 6.89428 16.3749 6.66602 17.3337C7.62474 17.1054 8.62734 16.8667 9.05194 16.6294C9.47654 16.3921 9.82498 16.0437 10.5218 15.3469L16.0111 9.8576M14.1421 7.98858L16.0111 9.8576" stroke="white" stroke-linecap="round" stroke-linejoin="round"/>
<path d="M11.334 17.333H15.334" stroke="white" stroke-linecap="round"/>
</svg>
