<svg width="196" height="197" viewBox="0 0 196 197" fill="none" xmlns="http://www.w3.org/2000/svg">
<g filter="url(#filter0_f_5146_12353)">
<circle cx="98.0001" cy="98.1258" r="55.1453" fill="#C1CBFF"/>
</g>
<circle cx="98" cy="98.125" r="61.4151" fill="#EFF2FF" stroke="white" stroke-width="3.41986"/>
<mask id="mask0_5146_12353" style="mask-type:alpha" maskUnits="userSpaceOnUse" x="38" y="38" width="120" height="120">
<circle cx="97.9997" cy="98.1252" r="59.4201" fill="white"/>
</mask>
<g mask="url(#mask0_5146_12353)">
<g clip-path="url(#clip0_5146_12353)">
<path d="M53.9383 159.487H139.53C141.19 159.487 142.7 158.128 142.7 156.317V93.0669C142.7 91.4064 141.341 89.8968 139.53 89.8968H96.2057C94.9981 89.8968 93.9414 89.293 93.4885 88.2363L90.9223 83.1039C90.3185 82.0472 89.2618 81.4434 88.2051 81.4434H52.5797C50.7683 81.4434 49.4097 82.9529 49.4097 84.6134V154.958C49.4097 157.374 51.3721 159.487 53.9383 159.487Z" fill="url(#paint0_linear_5146_12353)"/>
<path d="M140.285 93.6699H51.8252V125.521H140.285V93.6699Z" fill="white"/>
<path d="M53.0328 93.6699H51.8252V125.521H53.0328V93.6699Z" fill="#EFF2FF"/>
<path d="M140.285 93.6699H51.8252V95.0285H140.285V93.6699Z" fill="#EFF2FF"/>
<path d="M146.021 99.556V153.598C146.021 156.164 144.058 158.127 141.492 158.127H53.9383C51.3721 158.127 49.4097 156.164 49.4097 153.598V106.802C49.4097 104.236 51.3721 102.273 53.9383 102.273H98.0172C99.2248 102.273 100.432 101.82 101.187 100.915L105.716 96.3859C106.622 95.4802 107.678 95.0273 108.886 95.0273H141.492C144.058 95.0273 146.021 97.1407 146.021 99.556Z" fill="#889BFF"/>
<path d="M146.021 100.915V154.957C146.021 157.523 144.058 159.486 141.492 159.486H53.9383C51.3721 159.486 49.4097 157.523 49.4097 154.957V108.161C49.4097 105.595 51.3721 103.633 53.9383 103.633H98.0172C99.2248 103.633 100.432 103.18 101.187 102.274L105.716 97.7453C106.622 96.8396 107.678 96.3867 108.886 96.3867H141.492C144.058 96.3867 146.021 98.5001 146.021 100.915Z" fill="url(#paint1_linear_5146_12353)"/>
</g>
<g filter="url(#filter1_f_5146_12353)">
<path d="M96.9844 122.771C97.4074 121.942 98.592 121.942 99.0151 122.771L101.111 126.877C101.276 127.202 101.587 127.428 101.947 127.485L106.5 128.209C107.419 128.355 107.785 129.482 107.127 130.14L103.87 133.402C103.612 133.66 103.493 134.025 103.55 134.385L104.268 138.939C104.413 139.858 103.455 140.555 102.626 140.133L98.5166 138.042C98.1918 137.877 97.8076 137.877 97.4829 138.042L93.3739 140.133C92.5444 140.555 91.586 139.858 91.731 138.939L92.4493 134.385C92.506 134.025 92.3873 133.66 92.1298 133.402L88.8721 130.14C88.2144 129.482 88.5805 128.355 89.4997 128.209L94.0525 127.485C94.4123 127.428 94.7232 127.202 94.8888 126.877L96.9844 122.771Z" fill="#697DE7"/>
</g>
<path d="M96.9844 122.771C97.4074 121.942 98.592 121.942 99.0151 122.771L101.111 126.877C101.276 127.202 101.587 127.428 101.947 127.485L106.5 128.209C107.419 128.355 107.785 129.482 107.127 130.14L103.87 133.402C103.612 133.66 103.493 134.025 103.55 134.385L104.268 138.939C104.413 139.858 103.455 140.555 102.626 140.133L98.5166 138.042C98.1918 137.877 97.8076 137.877 97.4829 138.042L93.3739 140.133C92.5444 140.555 91.586 139.858 91.731 138.939L92.4493 134.385C92.506 134.025 92.3873 133.66 92.1298 133.402L88.8721 130.14C88.2144 129.482 88.5805 128.355 89.4997 128.209L94.0525 127.485C94.4123 127.428 94.7232 127.202 94.8888 126.877L96.9844 122.771Z" fill="#FEFEFE"/>
</g>
<defs>
<filter id="filter0_f_5146_12353" x="0.106426" y="0.232159" width="195.787" height="195.788" filterUnits="userSpaceOnUse" color-interpolation-filters="sRGB">
<feFlood flood-opacity="0" result="BackgroundImageFix"/>
<feBlend mode="normal" in="SourceGraphic" in2="BackgroundImageFix" result="shape"/>
<feGaussianBlur stdDeviation="21.3742" result="effect1_foregroundBlur_5146_12353"/>
</filter>
<filter id="filter1_f_5146_12353" x="82.8378" y="116.449" width="30.3239" height="29.5109" filterUnits="userSpaceOnUse" color-interpolation-filters="sRGB">
<feFlood flood-opacity="0" result="BackgroundImageFix"/>
<feBlend mode="normal" in="SourceGraphic" in2="BackgroundImageFix" result="shape"/>
<feGaussianBlur stdDeviation="2.84989" result="effect1_foregroundBlur_5146_12353"/>
</filter>
<linearGradient id="paint0_linear_5146_12353" x1="96.0547" y1="81.4434" x2="96.0547" y2="112.661" gradientUnits="userSpaceOnUse">
<stop stop-color="#9FAEFB"/>
<stop offset="1" stop-color="#5068E0"/>
</linearGradient>
<linearGradient id="paint1_linear_5146_12353" x1="97.7153" y1="96.3867" x2="97.7153" y2="159.486" gradientUnits="userSpaceOnUse">
<stop stop-color="#4D64DE"/>
<stop offset="1" stop-color="#B5C0FF"/>
</linearGradient>
<clipPath id="clip0_5146_12353">
<rect width="96.6112" height="96.6112" fill="white" transform="translate(49.4094 71.4785)"/>
</clipPath>
</defs>
</svg>
