<svg width="20" height="20" viewBox="0 0 20 20" fill="none" xmlns="http://www.w3.org/2000/svg">
<path d="M15.834 9.16706H5.95065L8.97565 5.53373C9.1171 5.36355 9.18515 5.14414 9.16484 4.92379C9.14452 4.70343 9.0375 4.50017 8.86732 4.35873C8.69714 4.21728 8.47774 4.14923 8.25738 4.16954C8.03703 4.18986 7.83377 4.29688 7.69232 4.46706L3.52565 9.46706C3.49705 9.50645 3.47195 9.54828 3.45065 9.59206C3.45065 9.63373 3.45065 9.65873 3.39232 9.70039C3.35455 9.79594 3.33477 9.89765 3.33398 10.0004C3.33477 10.1031 3.35455 10.2048 3.39232 10.3004C3.39232 10.3421 3.39232 10.3671 3.45065 10.4087C3.47195 10.4525 3.49705 10.4943 3.52565 10.5337L7.69232 15.5337C7.77067 15.6278 7.86879 15.7034 7.97969 15.7553C8.09059 15.8071 8.21156 15.8339 8.33398 15.8337C8.52869 15.8341 8.71739 15.7663 8.86732 15.6421C8.9517 15.5721 9.02145 15.4862 9.07258 15.3892C9.1237 15.2923 9.1552 15.1862 9.16527 15.077C9.17533 14.9679 9.16376 14.8578 9.13122 14.7532C9.09869 14.6485 9.04582 14.5513 8.97565 14.4671L5.95065 10.8337H15.834C16.055 10.8337 16.267 10.7459 16.4232 10.5896C16.5795 10.4334 16.6673 10.2214 16.6673 10.0004C16.6673 9.77938 16.5795 9.56742 16.4232 9.41114C16.267 9.25486 16.055 9.16706 15.834 9.16706Z" fill="#2A2E34"/>
</svg>
