<svg width="20" height="20" viewBox="0 0 20 20" fill="none" xmlns="http://www.w3.org/2000/svg">
<path d="M1.6665 6.66667C1.6665 6.66667 5.39746 2.5 9.99984 2.5C14.6022 2.5 18.3332 6.66667 18.3332 6.66667" stroke="#656F7D" stroke-width="1.25" stroke-linecap="round"/>
<path d="M17.9532 10.8705C18.2065 11.2258 18.3332 11.4034 18.3332 11.6663C18.3332 11.9293 18.2065 12.1069 17.9532 12.4622C16.8148 14.0585 13.9075 17.4997 9.99984 17.4997C6.09215 17.4997 3.18492 14.0585 2.04654 12.4622C1.79318 12.1069 1.6665 11.9293 1.6665 11.6663C1.6665 11.4034 1.79318 11.2258 2.04654 10.8705C3.18492 9.27417 6.09215 5.83301 9.99984 5.83301C13.9075 5.83301 16.8148 9.27417 17.9532 10.8705Z" stroke="#656F7D" stroke-width="1.25"/>
<path d="M12.5 11.667C12.5 10.2862 11.3807 9.16699 10 9.16699C8.61925 9.16699 7.5 10.2862 7.5 11.667C7.5 13.0477 8.61925 14.167 10 14.167C11.3807 14.167 12.5 13.0477 12.5 11.667Z" stroke="#656F7D" stroke-width="1.25"/>
</svg>
