<svg width="20" height="20" viewBox="0 0 20 20" fill="none" xmlns="http://www.w3.org/2000/svg">
<path d="M5.83398 7.08301L8.28567 8.53251C9.71498 9.37759 10.2863 9.37759 11.7157 8.53251L14.1673 7.08301" stroke="#2A2E34" stroke-width="1.25" stroke-linecap="round" stroke-linejoin="round"/>
<path d="M1.67915 11.23C1.73364 13.7846 1.76087 15.0619 2.70348 16.0081C3.64609 16.9544 4.95796 16.9873 7.58171 17.0532C9.19877 17.0939 10.7999 17.0939 12.417 17.0532C15.0408 16.9873 16.3526 16.9544 17.2952 16.0081C18.2379 15.0619 18.2651 13.7846 18.3195 11.23C18.3371 10.4086 18.3371 9.59202 18.3195 8.77068C18.2651 6.21604 18.2379 4.93873 17.2952 3.99254C16.3526 3.04635 15.0408 3.01339 12.417 2.94747C10.7999 2.90683 9.19877 2.90683 7.5817 2.94746C4.95796 3.01338 3.64609 3.04633 2.70348 3.99253C1.76087 4.93873 1.73363 6.21603 1.67915 8.7706C1.66164 9.59202 1.66164 10.4086 1.67915 11.23Z" stroke="#2A2E34" stroke-width="1.25" stroke-linejoin="round"/>
</svg>
