<svg width="36" height="36" viewBox="0 0 36 36" fill="none" xmlns="http://www.w3.org/2000/svg">
<rect width="36" height="36" rx="12" fill="white"/>
<path d="M17.999 10.1665C22.3228 10.1665 25.8328 13.6758 25.833 17.9995C25.833 22.3234 22.3229 25.8335 17.999 25.8335C13.6753 25.8333 10.166 22.3233 10.166 17.9995C10.1662 13.6759 13.6754 10.1667 17.999 10.1665ZM17.999 13.3335C15.4231 13.3337 13.3332 15.4236 13.333 17.9995C13.333 20.5755 15.423 22.6663 17.999 22.6665C20.5752 22.6665 22.666 20.5757 22.666 17.9995C22.6658 15.4235 20.5751 13.3335 17.999 13.3335Z" fill="#FF3B2D" stroke="#FF3B2D"/>
<path d="M18.0007 13.8335V22.1668C15.7007 22.1668 13.834 20.3002 13.834 18.0002C13.834 15.7002 15.7007 13.8335 18.0007 13.8335Z" fill="#FF3B2D"/>
</svg>
