<svg width="130" height="34" viewBox="0 0 130 34" fill="none" xmlns="http://www.w3.org/2000/svg">
<g clip-path="url(#clip0_141_1464)">
<path fill-rule="evenodd" clip-rule="evenodd" d="M54.391 23.8731L61.7036 6.74199L62.3081 5.32573L62.6158 4.60448C62.728 3.48192 62.3038 2.42244 61.4102 1.87813C60.5897 1.37836 59.5649 1.42964 58.6703 1.91689L58.7084 1.82806L48.5103 6.53134L50.9518 10.5632L55.9671 8.25021L53.3144 14.4646L50.9321 20.0458L46.4476 12.6405L45.7471 11.4835L45.4897 11.0586L44.8624 10.0228C44.5047 9.63685 44.0494 9.36554 43.5258 9.2625C43.2066 9.19943 42.8871 9.20401 42.5783 9.26708L41.4658 9.78009C41.4225 9.81283 41.3799 9.84653 41.338 9.88168L40.4959 11.8543L40.0212 12.9665L33.4019 28.4733L36.3889 33.4058L43.483 16.7867L48.668 25.349L48.798 25.5635L49.9121 27.4033C50.2024 27.6233 50.5368 27.779 50.9046 27.8515C51.6025 27.9892 52.3014 27.8046 52.8898 27.3883L53.9189 24.9778L54.3908 23.8726L54.391 23.8731Z" fill="white"/>
<path fill-rule="evenodd" clip-rule="evenodd" d="M66.1907 14.9668L74.7453 14.9819L73.1194 19.028L64.5205 19.0555L66.191 14.9668H66.1907ZM73.9184 26.7901L81.5028 7.5227H90.6135C92.7421 7.5227 94.4578 7.91727 95.7609 8.70641C97.064 9.4953 97.8871 10.6056 98.2299 12.0368C98.573 13.4682 98.3436 15.1745 97.5424 17.1563C96.785 19.1197 95.6678 20.8217 94.1904 22.2621C92.713 23.7026 91.0109 24.8175 89.0846 25.6064C84.8351 27.3467 78.711 26.7899 73.9189 26.7899L73.9184 26.7901ZM113.716 26.7901L121.3 7.5227H126.723L120.846 22.4686L130 22.4961L128.332 26.7899H113.716L113.716 26.7901ZM94.7941 26.7901L96.1148 23.3769L111.469 11.1677L110.578 11.8442H100.946L102.626 7.5227H119.196L118.128 10.2779L103.659 22.4044L101.318 22.4686H113.705L112.025 26.7901H94.7944H94.7941ZM81.0589 22.4412H84.4995C85.6117 22.4595 86.6548 22.2577 87.6288 21.8357C88.6031 21.4137 89.477 20.8037 90.2512 20.0054C91.0252 19.2071 91.639 18.2577 92.0923 17.1565C92.5163 16.0371 92.6547 15.0831 92.5076 14.2939C92.3608 13.505 91.9669 12.8993 91.3261 12.4773C90.6855 12.0553 89.8017 11.8533 88.6753 11.8716L85.2455 11.8442L81.0591 22.4412H81.0589ZM63.1179 22.6063L73.258 22.5786L71.5669 26.7899H56.1255L63.765 7.52246H78.8487L77.1409 11.7062L67.4688 11.7337L63.1184 22.6061L63.1179 22.6063Z" fill="white"/>
<path fill-rule="evenodd" clip-rule="evenodd" d="M17.3519 11.9273L9.51923 3.62357L8.26475 2.2935H6.45561H0V2.93988V17.5423V26.8025V33.2581H6.45561V26.8025V24.3859V23.4788V14.9782V9.78356L9.51923 13.0313L12.9148 16.6313L17.3519 21.3351L21.7889 16.6313L22.3207 16.0675L28.776 9.22384V8.54015L29.1237 8.85527L31.0657 10.6155L32.9947 12.364L33.1743 8.37982L33.3553 4.36938L33.449 2.2935L33.5523 0L28.776 0.380365L28.2007 0.426105L22.3207 0.894098V2.2935V2.68831L24.34 4.51888L22.3207 6.65975L17.3519 11.9273Z" fill="white"/>
<path fill-rule="evenodd" clip-rule="evenodd" d="M22.321 19.8864V26.6027L22.5095 26.8025H22.321H17.6097L16.7034 25.8418L14.9022 23.9325L10.4651 19.2285L9.51953 18.226V20.2311V26.8025V27.6338L10.4651 28.6365L12.2661 30.5458L14.8247 33.2581H22.321H23.6989H28.5989H28.7763V26.8025V24.0386V13.0427L23.5904 18.5407L22.321 19.8864Z" fill="white"/>
</g>
<defs>
<clipPath id="clip0_141_1464">
<rect width="130" height="33.4061" fill="white"/>
</clipPath>
</defs>
</svg>
