<svg width="130" height="34" viewBox="0 0 130 34" fill="none" xmlns="http://www.w3.org/2000/svg">
<g clip-path="url(#clip0_0_6693)">
<path fill-rule="evenodd" clip-rule="evenodd" d="M54.3915 23.873L61.7041 6.74186L62.3086 5.32561L62.6163 4.60436C62.7285 3.4818 62.3043 2.42232 61.4107 1.87801C60.5902 1.37824 59.5654 1.42952 58.6708 1.91677L58.7089 1.82794L48.5108 6.53122L50.9523 10.5631L55.9676 8.25008L53.3149 14.4645L50.9326 20.0457L46.4481 12.6404L45.7476 11.4834L45.4902 11.0585L44.8629 10.0226C44.5051 9.63673 44.0499 9.36542 43.5263 9.26238C43.2071 9.19931 42.8876 9.20388 42.5788 9.26696L41.4663 9.77997C41.423 9.81271 41.3804 9.84641 41.3385 9.88156L40.4964 11.8542L40.0217 12.9664L33.4023 28.4732L36.3894 33.4057L43.4835 16.7866L48.6684 25.3489L48.7984 25.5634L49.9126 27.4031C50.2029 27.6232 50.5373 27.7789 50.9051 27.8514C51.603 27.9891 52.3019 27.8044 52.8903 27.3882L53.9194 24.9777L54.3913 23.8725L54.3915 23.873Z" fill="#07B463"/>
<path fill-rule="evenodd" clip-rule="evenodd" d="M66.1902 14.9667L74.7448 14.9818L73.1189 19.0279L64.52 19.0553L66.1902 14.9667ZM73.9179 26.79L81.5023 7.52258H90.613C92.7416 7.52258 94.4573 7.91715 95.7604 8.70628C97.0636 9.49518 97.8866 10.6055 98.2294 12.0366C98.5725 13.4681 98.3431 15.1744 97.5419 17.1562C96.7845 19.1196 95.6673 20.8216 94.1899 22.262C92.7125 23.7025 91.0105 24.8174 89.0841 25.6063C84.8346 27.3466 78.71 26.79 73.9179 26.79ZM113.715 26.79L121.3 7.52258H126.722L120.845 22.4685L130 22.4959L128.331 26.7897L113.715 26.79ZM94.7936 26.79L96.1143 23.3768L111.469 11.1676L110.578 11.8441H100.946L102.626 7.52258H119.196L118.128 10.2778L103.658 22.4042L101.318 22.4685H113.704L112.024 26.79H94.7936ZM81.0584 22.4411H84.499C85.6112 22.4594 86.6543 22.2576 87.6283 21.8356C88.6026 21.4136 89.4765 20.8036 90.2507 20.0053C91.0247 19.207 91.6385 18.2575 92.0919 17.1564C92.5158 16.037 92.6542 15.0829 92.5071 14.2938C92.3603 13.5049 91.9664 12.8992 91.3256 12.4772C90.685 12.0552 89.8012 11.8532 88.6748 11.8715L85.245 11.8441L81.0584 22.4411ZM63.1175 22.6062L73.2575 22.5785L71.5664 26.7897H56.125L63.7646 7.52234H78.8482L77.1404 11.7061L67.4683 11.7336L63.1175 22.6062Z" fill="#07B463"/>
<path fill-rule="evenodd" clip-rule="evenodd" d="M17.3519 11.9274L9.51923 3.62361L8.26475 2.29353H6.45561H0V2.93991V17.5423V26.8025V33.2581H6.45561V26.8025V24.386V23.4789V14.9782V9.78359L9.51923 13.0314L12.9148 16.6314L17.3519 21.3351L21.7889 16.6314L22.3207 16.0675L28.776 9.22387V8.54018L29.1237 8.8553L31.0657 10.6156L32.9947 12.364L33.1743 8.37985L33.3553 4.36941L33.449 2.29353L33.5523 3.05176e-05L28.776 0.380395L28.2007 0.426135L22.3207 0.894128V2.29353V2.68834L24.34 4.51891L22.3207 6.65978L17.3519 11.9274Z" fill="#07B463"/>
<path fill-rule="evenodd" clip-rule="evenodd" d="M22.321 19.8864V26.6027L22.5095 26.8025H22.321H17.6097L16.7034 25.8417L14.9022 23.9324L10.4651 19.2284L9.51953 18.226V20.2311V26.8025V27.6338L10.4651 28.6364L12.2661 30.5457L14.8247 33.2581H22.321H23.6989H28.5989H28.7763V26.8025V24.0386V13.0427L23.5904 18.5407L22.321 19.8864Z" fill="#07B463"/>
</g>
<defs>
<clipPath id="clip0_0_6693">
<rect width="130" height="33.4061" fill="white"/>
</clipPath>
</defs>
</svg>
