<svg width="387" height="300" viewBox="0 0 387 300" fill="none" xmlns="http://www.w3.org/2000/svg">
<g id="No Chat History">
<path id="Fill 1" fill-rule="evenodd" clip-rule="evenodd" d="M208.763 0C173.502 0 141.092 12.2232 115.501 32.6736H74.1415C68.768 32.6736 64.3715 37.0845 64.3715 42.4757C64.3715 47.8668 68.768 52.2777 74.1415 52.2777H95.1906H101.359C106.732 52.2777 111.129 56.6887 111.129 62.0798C111.129 64.7721 110.028 67.2292 108.256 69.0001C106.491 70.7775 104.042 71.8819 101.359 71.8819H88.1992H80.9329H45.4829C40.1094 71.8819 35.7129 76.2928 35.7129 81.684C35.7129 87.0751 40.1094 91.486 45.4829 91.486H70.8614C63.2004 109.549 58.957 129.425 58.957 150.298C58.957 157.872 59.5171 165.315 60.5918 172.588C61.0412 175.627 61.5818 178.64 62.2136 181.619C80.6463 178.79 100.199 176.516 120.612 174.856L122.149 176.261L123.595 174.621C148.118 172.706 173.858 171.687 200.407 171.687C256.812 171.687 309.596 176.287 354.727 184.286C356.466 176.718 357.638 168.935 358.192 160.976C358.446 157.447 358.57 153.886 358.57 150.298C358.57 67.288 291.502 0 208.763 0Z" fill="#F1F2F7"/>
<path id="Fill 3" fill-rule="evenodd" clip-rule="evenodd" d="M15.8176 71.4287H9.8967C4.45351 71.4287 0 75.9287 0 81.4287C0 86.9287 4.45351 91.4287 9.8967 91.4287H15.8176C21.2607 91.4287 25.7143 86.9287 25.7143 81.4287C25.7143 75.9287 21.2607 71.4287 15.8176 71.4287Z" fill="#F1F2F7"/>
<g id="Group 7">
<mask id="mask0_0_11965" style="mask-type:luminance" maskUnits="userSpaceOnUse" x="62" y="171" width="324" height="129">
<path id="Clip 6" fill-rule="evenodd" clip-rule="evenodd" d="M385.611 171.902V300H223.811H62.0098V171.902H385.611Z" fill="white"/>
</mask>
<g mask="url(#mask0_0_11965)">
<path id="Fill 5" fill-rule="evenodd" clip-rule="evenodd" d="M385.611 221.428C385.611 226.785 381.216 231.169 375.844 231.169H313.454C310.771 231.169 308.323 232.266 306.559 234.032C304.787 235.792 303.686 238.233 303.686 240.909C303.686 246.266 308.082 250.649 313.454 250.649H325.046C327.728 250.649 330.177 251.746 331.942 253.513C333.713 255.272 334.813 257.714 334.813 260.389C334.813 265.746 330.418 270.13 325.046 270.13H298.393C273.355 288.883 242.242 300 208.524 300C136.511 300 76.3682 249.318 62.0098 181.772C80.438 178.961 99.9863 176.701 120.394 175.052L121.93 176.448L123.377 174.818C147.893 172.915 173.628 171.902 200.17 171.902C256.561 171.902 309.332 176.474 354.452 184.422C352.258 193.889 349.159 203.006 345.252 211.688H375.844C378.533 211.688 380.969 212.785 382.74 214.552C384.511 216.311 385.611 218.753 385.611 221.428Z" fill="#E8EBF2"/>
</g>
</g>
<path id="Fill 8" fill-rule="evenodd" clip-rule="evenodd" d="M357.145 160.533C356.592 168.643 355.421 176.575 353.684 184.286C308.613 176.135 255.9 171.448 199.569 171.448C173.056 171.448 147.349 172.486 122.859 174.437L139.843 154.759L166.263 172L202.028 162.125L263.554 171.448L290.264 162.125L297.029 171.448L313.169 159.468L328.251 173.292L352.039 154.286L357.145 160.533Z" fill="#E0E2EE"/>
<path id="Fill 10" fill-rule="evenodd" clip-rule="evenodd" d="M269.458 169.144C276.223 159.31 280.098 147.648 279.998 135.167C279.722 100.453 248.797 72.5587 210.927 72.8608C173.056 73.1637 142.582 101.551 142.859 136.264C143.137 170.977 174.061 198.872 211.931 198.57C225.461 198.462 238.047 194.767 248.624 188.48L276.917 195.142L269.458 169.144Z" fill="#D8DBEA"/>
<path id="Fill 12" fill-rule="evenodd" clip-rule="evenodd" d="M191.426 134.229C191.458 138.173 188.285 141.397 184.341 141.428C180.395 141.46 177.172 138.287 177.141 134.343C177.109 130.398 180.281 127.175 184.226 127.143C188.171 127.111 191.394 130.284 191.426 134.229Z" fill="#BEC0D6"/>
<path id="Fill 14" fill-rule="evenodd" clip-rule="evenodd" d="M217.143 134.228C217.174 138.173 214.002 141.397 210.057 141.428C206.112 141.459 202.888 138.287 202.858 134.343C202.826 130.398 205.998 127.174 209.943 127.143C213.887 127.111 217.111 130.284 217.143 134.228Z" fill="#BEC0D6"/>
<path id="Fill 16" fill-rule="evenodd" clip-rule="evenodd" d="M242.854 134.228C242.885 138.173 239.713 141.396 235.768 141.428C231.823 141.459 228.599 138.287 228.569 134.342C228.537 130.397 231.709 127.174 235.654 127.143C239.598 127.111 242.822 130.284 242.854 134.228Z" fill="#BEC0D6"/>
<path id="Fill 18" fill-rule="evenodd" clip-rule="evenodd" d="M122.857 174.284L121.472 175.713L120 174.489C120.948 174.415 121.903 174.347 122.857 174.284Z" fill="#F1F2F7"/>
<path id="Fill 20" fill-rule="evenodd" clip-rule="evenodd" d="M135.715 184.286C135.715 188.823 137.166 193.046 139.659 196.601L137.013 206.085L147.316 203.579C151.19 205.832 155.784 207.143 160.715 207.143C174.522 207.143 185.715 196.909 185.715 184.286C185.715 171.662 174.522 161.429 160.715 161.429C146.907 161.429 135.715 171.662 135.715 184.286Z" fill="url(#paint0_linear_0_11965)"/>
<path id="Fill 22" fill-rule="evenodd" clip-rule="evenodd" d="M167.145 184.287C167.145 185.865 168.423 187.144 170.001 187.144C171.579 187.144 172.859 185.865 172.859 184.287C172.859 182.71 171.579 181.43 170.001 181.43C168.423 181.43 167.145 182.71 167.145 184.287Z" fill="white"/>
<path id="Fill 24" fill-rule="evenodd" clip-rule="evenodd" d="M158.572 184.287C158.572 185.865 159.851 187.144 161.429 187.144C163.007 187.144 164.287 185.865 164.287 184.287C164.287 182.71 163.007 181.43 161.429 181.43C159.851 181.43 158.572 182.71 158.572 184.287Z" fill="white"/>
<path id="Fill 26" fill-rule="evenodd" clip-rule="evenodd" d="M148.57 184.287C148.57 185.865 149.849 187.144 151.427 187.144C153.005 187.144 154.285 185.865 154.285 184.287C154.285 182.71 153.005 181.43 151.427 181.43C149.849 181.43 148.57 182.71 148.57 184.287Z" fill="white"/>
<path id="Fill 28" fill-rule="evenodd" clip-rule="evenodd" d="M120 174.653C99.5941 176.316 80.0477 178.593 61.6213 181.427C60.9897 178.443 60.4493 175.425 60 172.382L91.5848 148.57L120 174.653Z" fill="#E0E2EE"/>
<path id="Fill 30" fill-rule="evenodd" clip-rule="evenodd" d="M262.858 223.572C262.858 226.334 237.914 228.572 207.144 228.572C176.373 228.572 151.43 226.334 151.43 223.572C151.43 220.812 176.373 218.572 207.144 218.572C237.914 218.572 262.858 220.812 262.858 223.572Z" fill="#D8DBEA"/>
<path id="Fill 32" fill-rule="evenodd" clip-rule="evenodd" d="M354.285 269.999C348.785 269.999 344.285 265.499 344.285 259.999C344.285 254.499 348.785 249.999 354.285 249.999C359.785 249.999 364.285 254.499 364.285 259.999C364.285 265.499 359.785 269.999 354.285 269.999Z" fill="#E1E3EF"/>
</g>
<defs>
<linearGradient id="paint0_linear_0_11965" x1="160.715" y1="138.572" x2="115.184" y2="188.371" gradientUnits="userSpaceOnUse">
<stop stop-color="#FF8960"/>
<stop offset="1" stop-color="#FF62A5"/>
</linearGradient>
</defs>
</svg>
