<svg width="32" height="32" viewBox="0 0 32 32" fill="none" xmlns="http://www.w3.org/2000/svg">
<g clip-path="url(#clip0_0_12114)">
<path d="M32 15.9998C32.0057 19.5275 30.84 22.9572 28.6858 25.7507C28.3675 26.165 28.0293 26.5629 27.6714 26.9443C26.1749 28.5403 24.3671 29.8125 22.3595 30.6822C20.3519 31.5519 18.1873 32.0006 15.9995 32.0006C13.8116 32.0006 11.647 31.5519 9.63948 30.6822C7.63191 29.8125 5.82404 28.5403 4.3276 26.9443C3.97105 26.5626 3.63315 26.1649 3.31392 25.751C1.15995 22.9573 -0.00564023 19.5275 2.05217e-05 15.9998C2.05217e-05 7.16334 7.16336 0 15.9998 0C24.8363 0 32 7.16334 32 15.9998Z" fill="#07B463"/>
<path d="M28.6863 25.751C28.368 26.1653 28.0299 26.5632 27.6719 26.9446C26.1755 28.5407 24.3676 29.8128 22.36 30.6825C20.3525 31.5522 18.1879 32.0009 16 32.0009C13.8122 32.0009 11.6476 31.5522 9.64001 30.6825C7.63244 29.8128 5.82457 28.5407 4.32813 26.9446C3.97158 26.563 3.63368 26.1652 3.31445 25.7514C3.48733 25.0933 3.69295 24.4275 4.14046 23.9205C4.71473 23.2702 5.58792 22.9885 6.4178 22.7339L12.4224 20.8925C12.6097 20.3996 12.7963 19.6338 12.8562 18.4912C12.4118 17.987 12.0397 17.4349 11.8474 16.9526C11.6003 16.3221 11.4717 15.6514 11.4679 14.9742C11.3894 15.1178 11.2024 15.1928 11.038 15.1618C10.8538 15.1266 10.7042 14.9858 10.6155 14.8203C10.5267 14.6548 10.4912 14.4682 10.4616 14.2834C10.3574 13.6398 10.3119 12.9881 10.3257 12.3363C10.3313 12.0585 10.3919 11.7191 10.6545 11.6296C10.7774 11.5881 10.914 11.618 11.0274 11.6831C10.9686 10.5529 10.9714 9.42031 11.0359 8.29038C11.069 7.6214 11.1249 6.93024 11.4534 6.34788C11.7569 5.80953 12.2668 5.40321 12.8326 5.15463C13.1372 5.02312 13.4508 4.91346 13.7709 4.82648C15.2888 4.40141 16.8965 4.41814 18.4052 4.87472C18.6644 4.95313 18.9188 5.04659 19.1671 5.15463C19.7329 5.40321 20.2427 5.80953 20.5459 6.34788C20.8744 6.93024 20.9307 7.62245 20.9638 8.29038C21.0283 9.42031 21.0311 10.5529 20.9723 11.6831C21.0857 11.618 21.2223 11.5881 21.3448 11.6296C21.6078 11.7191 21.6684 12.0585 21.674 12.3363C21.6878 12.9881 21.6423 13.6398 21.5381 14.2834C21.5085 14.4679 21.4726 14.6555 21.3842 14.8203C21.2959 14.9851 21.1462 15.127 20.9617 15.1618C20.7973 15.1928 20.6096 15.1178 20.5315 14.9742C20.5278 15.6513 20.3993 16.322 20.1523 16.9526C19.96 17.4339 19.5889 17.987 19.1432 18.4912C19.2034 19.6338 19.3896 20.3978 19.5769 20.8925L25.5819 22.7336C26.4114 22.9882 27.285 23.2698 27.8592 23.9202C28.3089 24.4275 28.5141 25.093 28.6863 25.751Z" fill="white"/>
</g>
<defs>
<clipPath id="clip0_0_12114">
<rect width="32" height="32" fill="white"/>
</clipPath>
</defs>
</svg>
