<svg width="18" height="18" viewBox="0 0 18 18" fill="none" xmlns="http://www.w3.org/2000/svg">
<path d="M10.4 1.82848L11.8665 4.78573C12.0665 5.19739 12.5997 5.59225 13.0497 5.66786L15.7077 6.11312C17.4075 6.39877 17.8075 7.64216 16.5826 8.86875L14.5162 10.9522C14.1662 11.3051 13.9746 11.9856 14.0829 12.4729L14.6745 15.0521C15.1411 17.0936 14.0662 17.8833 12.2748 16.8163L9.78337 15.3293C9.33345 15.0605 8.59187 15.0605 8.13354 15.3293L5.64218 16.8163C3.85904 17.8833 2.77583 17.0852 3.24244 15.0521L3.83404 12.4729C3.94236 11.9856 3.75072 11.3051 3.40075 10.9522L1.33432 8.86875C0.117786 7.64216 0.509411 6.39877 2.20922 6.11312L4.86726 5.66786C5.30888 5.59225 5.84215 5.19739 6.04213 4.78573L7.50862 1.82848C8.30854 0.22384 9.60837 0.22384 10.4 1.82848Z" stroke="white" stroke-width="1.25" stroke-linecap="round" stroke-linejoin="round"/>
</svg>
