<svg width="20" height="20" viewBox="0 0 20 20" fill="none" xmlns="http://www.w3.org/2000/svg">
<path d="M13.5896 3.65263C13.0971 3.65263 12.8508 3.65263 12.6264 3.56939C12.5953 3.55782 12.5646 3.54511 12.5343 3.53125C12.3168 3.43147 12.1428 3.25734 11.7944 2.90907C10.9928 2.10749 10.5921 1.7067 10.0989 1.66974C10.0327 1.66477 9.96602 1.66477 9.89977 1.66974C9.4066 1.7067 9.00577 2.10749 8.20422 2.90907C7.85596 3.25734 7.68182 3.43147 7.46432 3.53125C7.43412 3.54511 7.4034 3.55782 7.37224 3.56939C7.14789 3.65263 6.90162 3.65263 6.40911 3.65263H6.31826C5.06167 3.65263 4.43337 3.65263 4.04301 4.04301C3.65263 4.43337 3.65263 5.06167 3.65263 6.31826V6.40911C3.65263 6.90162 3.65263 7.14789 3.56939 7.37224C3.55782 7.4034 3.54511 7.43412 3.53125 7.46432C3.43147 7.68182 3.25734 7.85596 2.90907 8.20422C2.10749 9.00577 1.7067 9.4066 1.66974 9.89977C1.66477 9.96602 1.66477 10.0327 1.66974 10.0989C1.7067 10.5921 2.10749 10.9928 2.90907 11.7944C3.25734 12.1428 3.43147 12.3168 3.53125 12.5343C3.54511 12.5646 3.55782 12.5953 3.56939 12.6264C3.65263 12.8508 3.65263 13.0971 3.65263 13.5896V13.6804C3.65263 14.937 3.65263 15.5653 4.04301 15.9557C4.43337 16.3461 5.06167 16.3461 6.31826 16.3461H6.40911C6.90162 16.3461 7.14789 16.3461 7.37224 16.4293C7.4034 16.4408 7.43412 16.4536 7.46432 16.4674C7.68182 16.5673 7.85596 16.7413 8.20422 17.0896C9.00577 17.8912 9.4066 18.292 9.89977 18.3289C9.96602 18.3339 10.0326 18.3339 10.0989 18.3289C10.5921 18.292 10.9928 17.8912 11.7944 17.0896C12.1428 16.7413 12.3168 16.5673 12.5343 16.4674C12.5646 16.4536 12.5953 16.4408 12.6264 16.4293C12.8508 16.3461 13.0971 16.3461 13.5896 16.3461H13.6804C14.937 16.3461 15.5653 16.3461 15.9557 15.9557C16.3461 15.5653 16.3461 14.937 16.3461 13.6804V13.5896C16.3461 13.0971 16.3461 12.8508 16.4293 12.6264C16.4408 12.5953 16.4536 12.5646 16.4674 12.5343C16.5673 12.3168 16.7413 12.1428 17.0896 11.7944C17.8912 10.9928 18.292 10.5921 18.3289 10.0989C18.3339 10.0326 18.3339 9.96602 18.3289 9.89977C18.292 9.4066 17.8912 9.00577 17.0896 8.20422C16.7413 7.85596 16.5673 7.68182 16.4674 7.46432C16.4536 7.43412 16.4408 7.4034 16.4293 7.37224C16.3461 7.14789 16.3461 6.90162 16.3461 6.40911V6.31826C16.3461 5.06167 16.3461 4.43337 15.9557 4.04301C15.5653 3.65263 14.937 3.65263 13.6804 3.65263H13.5896Z" stroke="white" stroke-width="1.25"/>
<path d="M12.9173 10.0007C12.9173 11.6115 11.6115 12.9173 10.0007 12.9173C8.38982 12.9173 7.08398 11.6115 7.08398 10.0007C7.08398 8.38982 8.38982 7.08398 10.0007 7.08398C11.6115 7.08398 12.9173 8.38982 12.9173 10.0007Z" stroke="white" stroke-width="1.25"/>
</svg>
