<svg width="20" height="20" viewBox="0 0 20 20" fill="none" xmlns="http://www.w3.org/2000/svg">
<path d="M13.5896 3.65361C13.0971 3.65361 12.8508 3.65361 12.6264 3.57037C12.5953 3.5588 12.5646 3.54608 12.5343 3.53223C12.3168 3.43245 12.1428 3.25832 11.7944 2.91005C10.9928 2.10847 10.5921 1.70768 10.0989 1.67072C10.0327 1.66575 9.96602 1.66575 9.89977 1.67072C9.4066 1.70768 9.00577 2.10847 8.20422 2.91004C7.85596 3.25832 7.68182 3.43245 7.46432 3.53223C7.43412 3.54608 7.4034 3.5588 7.37224 3.57037C7.14789 3.65361 6.90162 3.65361 6.40911 3.65361H6.31826C5.06167 3.65361 4.43337 3.65361 4.04301 4.04398C3.65263 4.43435 3.65263 5.06264 3.65263 6.31923V6.41008C3.65263 6.9026 3.65263 7.14887 3.56939 7.37322C3.55782 7.40438 3.54511 7.43509 3.53125 7.4653C3.43147 7.6828 3.25734 7.85693 2.90907 8.2052C2.10749 9.00674 1.7067 9.40758 1.66974 9.90074C1.66477 9.96699 1.66477 10.0337 1.66974 10.0999C1.7067 10.5931 2.10749 10.9938 2.90907 11.7954C3.25734 12.1437 3.43147 12.3178 3.53125 12.5353C3.54511 12.5656 3.55782 12.5962 3.56939 12.6274C3.65263 12.8517 3.65263 13.0981 3.65263 13.5906V13.6814C3.65263 14.938 3.65263 15.5663 4.04301 15.9567C4.43337 16.3471 5.06167 16.3471 6.31826 16.3471H6.40911C6.90162 16.3471 7.14789 16.3471 7.37224 16.4303C7.4034 16.4418 7.43412 16.4546 7.46432 16.4684C7.68182 16.5682 7.85596 16.7423 8.20422 17.0906C9.00577 17.8922 9.4066 18.293 9.89977 18.3299C9.96602 18.3349 10.0326 18.3349 10.0989 18.3299C10.5921 18.293 10.9928 17.8922 11.7944 17.0906C12.1428 16.7423 12.3168 16.5682 12.5343 16.4684C12.5646 16.4546 12.5953 16.4418 12.6264 16.4303C12.8508 16.3471 13.0971 16.3471 13.5896 16.3471H13.6804C14.937 16.3471 15.5653 16.3471 15.9557 15.9567C16.3461 15.5663 16.3461 14.938 16.3461 13.6814V13.5906C16.3461 13.0981 16.3461 12.8517 16.4293 12.6274C16.4408 12.5962 16.4536 12.5656 16.4674 12.5353C16.5673 12.3178 16.7413 12.1437 17.0896 11.7954C17.8912 10.9938 18.292 10.5931 18.3289 10.0999C18.3339 10.0336 18.3339 9.96699 18.3289 9.90074C18.292 9.40758 17.8912 9.00674 17.0896 8.2052C16.7413 7.85693 16.5673 7.6828 16.4674 7.4653C16.4536 7.43509 16.4408 7.40438 16.4293 7.37322C16.3461 7.14887 16.3461 6.9026 16.3461 6.41008V6.31923C16.3461 5.06264 16.3461 4.43435 15.9557 4.04398C15.5653 3.65361 14.937 3.65361 13.6804 3.65361H13.5896Z" stroke="#2A2E34" stroke-width="1.25"/>
<path d="M12.9173 9.99967C12.9173 11.6105 11.6115 12.9163 10.0007 12.9163C8.38982 12.9163 7.08398 11.6105 7.08398 9.99967C7.08398 8.38884 8.38982 7.08301 10.0007 7.08301C11.6115 7.08301 12.9173 8.38884 12.9173 9.99967Z" stroke="#2A2E34" stroke-width="1.25"/>
</svg>
