<svg width="20" height="20" viewBox="0 0 20 20" fill="none" xmlns="http://www.w3.org/2000/svg">
<path d="M2.47266 8.33691V12.5036C2.47266 14.8606 2.47266 16.0391 3.20489 16.7713C3.93712 17.5036 5.11563 17.5036 7.47266 17.5036H9.13932" stroke="white" stroke-width="1.25" stroke-linecap="round"/>
<path d="M8.41918 6.60466C8.1842 7.45436 7.32958 8.92008 5.70582 9.13249C4.27212 9.32008 3.18473 8.69349 2.90698 8.43149C2.60075 8.21909 1.90281 7.53933 1.7319 7.11448C1.56097 6.68963 1.76038 5.76912 1.90281 5.39384L2.4722 3.74318C2.6112 3.32858 2.9366 2.34797 3.27019 2.01629C3.60379 1.6846 4.27919 1.67018 4.55718 1.67018H10.3951C11.8978 1.69143 15.1834 1.65676 15.8329 1.67018C16.4824 1.68359 16.8728 2.22871 16.9867 2.46238C17.9558 4.81259 18.3327 6.15857 18.3327 6.73211C18.2062 7.34395 17.6827 8.49766 15.8329 9.00508C13.9104 9.53241 12.8205 8.50666 12.4786 8.11287M7.6287 8.11288C7.89932 8.44566 8.74826 9.11549 9.97885 9.13249C11.2095 9.14949 12.2721 8.28989 12.6495 7.85796C12.7563 7.73051 12.9871 7.35239 13.2264 6.60466" stroke="white" stroke-width="1.25" stroke-linecap="round" stroke-linejoin="round"/>
<path d="M14.5827 12.7781V11.667M14.5827 12.7781C13.8004 12.7781 13.1141 13.1952 12.7274 13.8224M14.5827 12.7781C15.3649 12.7781 16.0513 13.1952 16.4379 13.8224M12.7274 13.8224L11.666 13.1485M12.7274 13.8224C12.5169 14.1639 12.3952 14.5677 12.3952 15.0003C12.3952 15.433 12.5169 15.8367 12.7274 16.1782M16.4379 13.8224L17.4993 13.1485M16.4379 13.8224C16.6484 14.1639 16.7702 14.5677 16.7702 15.0003C16.7702 15.433 16.6484 15.8367 16.4379 16.1782M14.5827 18.3337V17.2226M14.5827 17.2226C13.8004 17.2226 13.1141 16.8055 12.7274 16.1782M14.5827 17.2226C15.3649 17.2226 16.0513 16.8055 16.4379 16.1782M12.7274 16.1782L11.666 16.8522M16.4379 16.1782L17.4993 16.8522" stroke="white" stroke-width="1.25" stroke-linecap="round" stroke-linejoin="round"/>
</svg>
