<svg width="20" height="20" viewBox="0 0 20 20" fill="none" xmlns="http://www.w3.org/2000/svg">
<path d="M14.583 4.16699C15.2734 4.16699 15.833 4.72664 15.833 5.41699C15.833 6.10735 15.2734 6.66699 14.583 6.66699C13.8927 6.66699 13.333 6.10735 13.333 5.41699C13.333 4.72664 13.8927 4.16699 14.583 4.16699Z" stroke="#656F7D" stroke-width="1.25" stroke-linecap="round" stroke-linejoin="round"/>
<path d="M2.31219 9.28691C1.47623 10.2206 1.45824 11.6292 2.22546 12.6201C3.74792 14.5864 5.41428 16.2527 7.3806 17.7752C8.37149 18.5424 9.78008 18.5244 10.7137 17.6885C13.2486 15.4188 15.5699 13.0469 17.8102 10.4402C18.0317 10.1826 18.1702 9.86674 18.2013 9.52833C18.3388 8.03198 18.6213 3.72088 17.4506 2.55011C16.2797 1.37933 11.9687 1.6618 10.4723 1.79929C10.1339 1.83039 9.81808 1.96893 9.56033 2.19042C6.95376 4.43071 4.58184 6.75208 2.31219 9.28691Z" stroke="#656F7D" stroke-width="1.25"/>
<path d="M5.83301 11.667L8.33299 14.167" stroke="#656F7D" stroke-width="1.25" stroke-linecap="round" stroke-linejoin="round"/>
</svg>
