<svg width="20" height="20" viewBox="0 0 20 20" fill="none" xmlns="http://www.w3.org/2000/svg">
<path d="M12.0341 6.04141C11.8758 6.04141 11.7174 5.98307 11.5924 5.85807L9.90078 4.16641L8.20911 5.85807C7.96745 6.09974 7.56745 6.09974 7.32578 5.85807C7.08411 5.61641 7.08411 5.21641 7.32578 4.97474L9.45911 2.84141C9.70078 2.59974 10.1008 2.59974 10.3424 2.84141L12.4758 4.97474C12.7174 5.21641 12.7174 5.61641 12.4758 5.85807C12.3508 5.98307 12.1924 6.04141 12.0341 6.04141Z" fill="#4F5762"/>
<path d="M9.90039 12.4418C9.55872 12.4418 9.27539 12.1585 9.27539 11.8168V3.3418C9.27539 3.00013 9.55872 2.7168 9.90039 2.7168C10.2421 2.7168 10.5254 3.00013 10.5254 3.3418V11.8168C10.5254 12.1668 10.2421 12.4418 9.90039 12.4418Z" fill="#4F5762"/>
<path d="M10.0007 17.2917C5.70898 17.2917 2.70898 14.2917 2.70898 10C2.70898 9.65833 2.99232 9.375 3.33398 9.375C3.67565 9.375 3.95898 9.65833 3.95898 10C3.95898 13.5583 6.44232 16.0417 10.0007 16.0417C13.559 16.0417 16.0423 13.5583 16.0423 10C16.0423 9.65833 16.3257 9.375 16.6673 9.375C17.009 9.375 17.2923 9.65833 17.2923 10C17.2923 14.2917 14.2923 17.2917 10.0007 17.2917Z" fill="#4F5762"/>
</svg>
