<svg width="40" height="40" viewBox="0 0 40 40" fill="none" xmlns="http://www.w3.org/2000/svg">
<rect width="40" height="40" rx="10" fill="#EF4444"/>
<path d="M21.6663 17.0832C21.6663 14.782 19.8008 12.9165 17.4997 12.9165C15.1985 12.9165 13.333 14.782 13.333 17.0832C13.333 19.3843 15.1985 21.2498 17.4997 21.2498C19.8008 21.2498 21.6663 19.3843 21.6663 17.0832Z" stroke="white" stroke-width="1.25" stroke-linecap="round" stroke-linejoin="round"/>
<path d="M27.4602 17.9564L24.2205 21.196M28.333 19.5835C28.333 20.9642 27.2138 22.0835 25.833 22.0835C24.4523 22.0835 23.333 20.9642 23.333 19.5835C23.333 18.2028 24.4523 17.0835 25.833 17.0835C27.2138 17.0835 28.333 18.2028 28.333 19.5835Z" stroke="white" stroke-width="1.25" stroke-linecap="round" stroke-linejoin="round"/>
<path d="M23.3337 27.0833C23.3337 23.8617 20.722 21.25 17.5003 21.25C14.2787 21.25 11.667 23.8617 11.667 27.0833" stroke="white" stroke-width="1.25" stroke-linecap="round" stroke-linejoin="round"/>
</svg>
