<svg width="40" height="40" viewBox="0 0 40 40" fill="none" xmlns="http://www.w3.org/2000/svg">
<rect width="40" height="40" rx="10" fill="#F59E0B"/>
<path d="M21.43 17.0832C21.43 14.782 19.5645 12.9165 17.2633 12.9165C14.9622 12.9165 13.0967 14.782 13.0967 17.0832C13.0967 19.3843 14.9622 21.2498 17.2633 21.2498C19.5645 21.2498 21.43 19.3843 21.43 17.0832Z" stroke="white" stroke-width="1.25" stroke-linecap="round" stroke-linejoin="round"/>
<path d="M27.2238 17.9564L23.9842 21.196M28.0967 19.5835C28.0967 20.9642 26.9774 22.0835 25.5967 22.0835C24.2159 22.0835 23.0967 20.9642 23.0967 19.5835C23.0967 18.2028 24.2159 17.0835 25.5967 17.0835C26.9774 17.0835 28.0967 18.2028 28.0967 19.5835Z" stroke="white" stroke-width="1.25" stroke-linecap="round" stroke-linejoin="round"/>
<path d="M23.0973 27.0833C23.0973 23.8617 20.4857 21.25 17.264 21.25C14.0423 21.25 11.4307 23.8617 11.4307 27.0833" stroke="white" stroke-width="1.25" stroke-linecap="round" stroke-linejoin="round"/>
</svg>
