<svg width="36" height="36" viewBox="0 0 36 36" fill="none" xmlns="http://www.w3.org/2000/svg">
<rect width="36" height="36" rx="12" fill="white"/>
<path d="M25.7077 15.6251C23.7827 12.6001 20.966 10.8584 17.9993 10.8584C16.516 10.8584 15.0743 11.2917 13.7577 12.1001C12.441 12.9167 11.2577 14.1084 10.291 15.6251C9.45768 16.9334 9.45768 19.0584 10.291 20.3667C12.216 23.4001 15.0327 25.1334 17.9993 25.1334C19.4827 25.1334 20.9243 24.7001 22.241 23.8917C23.5577 23.0751 24.741 21.8834 25.7077 20.3667C26.541 19.0667 26.541 16.9334 25.7077 15.6251ZM17.9993 21.3667C16.1327 21.3667 14.6327 19.8584 14.6327 18.0001C14.6327 16.1417 16.1327 14.6334 17.9993 14.6334C19.866 14.6334 21.366 16.1417 21.366 18.0001C21.366 19.8584 19.866 21.3667 17.9993 21.3667Z" fill="#07B463"/>
<path d="M18 16.1167C19.0322 16.1167 19.8838 16.9683 19.8838 18.0005C19.8835 19.0302 19.0343 19.8755 18 19.8755C16.968 19.8755 16.1252 19.0325 16.125 18.0005C16.125 16.9588 16.9689 16.1167 18 16.1167Z" fill="#07B463" stroke="#07B463"/>
</svg>
