<svg width="20" height="20" viewBox="0 0 20 20" fill="none" xmlns="http://www.w3.org/2000/svg">
<path d="M15.834 9.16657H5.95065L8.97565 5.53324C9.1171 5.36306 9.18515 5.14366 9.16484 4.9233C9.14452 4.70295 9.0375 4.49969 8.86732 4.35824C8.69714 4.21679 8.47774 4.14874 8.25738 4.16905C8.03703 4.18937 7.83377 4.29639 7.69232 4.46657L3.52565 9.46657C3.49705 9.50597 3.47195 9.54779 3.45065 9.59157C3.45065 9.63324 3.45065 9.65824 3.39232 9.6999C3.35455 9.79545 3.33477 9.89716 3.33398 9.9999C3.33477 10.1026 3.35455 10.2044 3.39232 10.2999C3.39232 10.3416 3.39232 10.3666 3.45065 10.4082C3.47195 10.452 3.49705 10.4938 3.52565 10.5332L7.69232 15.5332C7.77067 15.6273 7.86879 15.703 7.97969 15.7548C8.09059 15.8067 8.21156 15.8334 8.33398 15.8332C8.52869 15.8336 8.71739 15.7658 8.86732 15.6416C8.9517 15.5716 9.02145 15.4857 9.07258 15.3887C9.1237 15.2918 9.1552 15.1857 9.16527 15.0765C9.17533 14.9674 9.16376 14.8573 9.13122 14.7527C9.09869 14.648 9.04582 14.5508 8.97565 14.4666L5.95065 10.8332H15.834C16.055 10.8332 16.267 10.7454 16.4232 10.5892C16.5795 10.4329 16.6673 10.2209 16.6673 9.9999C16.6673 9.77889 16.5795 9.56693 16.4232 9.41065C16.267 9.25437 16.055 9.16657 15.834 9.16657Z" fill="#2A2E34"/>
</svg>
