<svg width="21" height="20" viewBox="0 0 21 20" fill="none" xmlns="http://www.w3.org/2000/svg">
<path d="M2.16797 9.58366C2.16797 5.85171 2.16797 3.98573 3.32734 2.82636C4.48671 1.66699 6.35269 1.66699 10.0846 1.66699C13.8166 1.66699 15.6826 1.66699 16.842 2.82636C18.0013 3.98573 18.0013 5.85171 18.0013 9.58366C18.0013 13.3156 18.0013 15.1816 16.842 16.341C15.6826 17.5003 13.8166 17.5003 10.0846 17.5003C6.35269 17.5003 4.48671 17.5003 3.32734 16.341C2.16797 15.1816 2.16797 13.3156 2.16797 9.58366Z" stroke="#656F7D" stroke-width="1.25"/>
<path d="M7.58203 9.58301H12.5821" stroke="#656F7D" stroke-width="1.25" stroke-linecap="round" stroke-linejoin="round"/>
<path d="M8.41797 12.5H11.7513" stroke="#656F7D" stroke-width="1.25" stroke-linecap="round" stroke-linejoin="round"/>
<path d="M6.75 6.66699H13.4167" stroke="#656F7D" stroke-width="1.25" stroke-linecap="round" stroke-linejoin="round"/>
</svg>
