<svg width="41" height="41" viewBox="0 0 41 41" fill="none" xmlns="http://www.w3.org/2000/svg">
<path d="M0.5 20.5C0.5 11.0719 0.5 6.35786 3.42893 3.42893C6.35786 0.5 11.0719 0.5 20.5 0.5C29.9281 0.5 34.6421 0.5 37.5711 3.42893C40.5 6.35786 40.5 11.0719 40.5 20.5C40.5 29.9281 40.5 34.6421 37.5711 37.5711C34.6421 40.5 29.9281 40.5 20.5 40.5C11.0719 40.5 6.35786 40.5 3.42893 37.5711C0.5 34.6421 0.5 29.9281 0.5 20.5Z" fill="white"/>
<path d="M0.5 20.5C0.5 11.0719 0.5 6.35786 3.42893 3.42893C6.35786 0.5 11.0719 0.5 20.5 0.5C29.9281 0.5 34.6421 0.5 37.5711 3.42893C40.5 6.35786 40.5 11.0719 40.5 20.5C40.5 29.9281 40.5 34.6421 37.5711 37.5711C34.6421 40.5 29.9281 40.5 20.5 40.5C11.0719 40.5 6.35786 40.5 3.42893 37.5711C0.5 34.6421 0.5 29.9281 0.5 20.5Z" stroke="#E5E7EF"/>
<path d="M12.6079 22.8081C12.4307 23.9697 13.223 24.7761 14.1931 25.1779C17.912 26.7186 23.0873 26.7186 26.8063 25.1779C27.7763 24.7761 28.5686 23.9697 28.3914 22.8081C28.2825 22.0942 27.744 21.4997 27.345 20.9192C26.8224 20.1495 26.7705 19.3099 26.7704 18.4167C26.7704 14.965 23.9629 12.1667 20.4997 12.1667C17.0365 12.1667 14.229 14.965 14.229 18.4167C14.2289 19.3099 14.1769 20.1495 13.6544 20.9192C13.2554 21.4997 12.7169 22.0942 12.6079 22.8081Z" stroke="#2A2E34" stroke-width="1.25" stroke-linecap="round" stroke-linejoin="round"/>
<path d="M17.167 26.3333C17.5491 27.7709 18.8966 28.8333 20.5003 28.8333C22.1041 28.8333 23.4516 27.7709 23.8337 26.3333" stroke="#2A2E34" stroke-width="1.25" stroke-linecap="round" stroke-linejoin="round"/>
</svg>
