<svg width="20" height="20" viewBox="0 0 20 20" fill="none" xmlns="http://www.w3.org/2000/svg">
<path d="M8.33301 9.99967C8.33301 10.4417 8.5086 10.8656 8.82116 11.1782C9.13372 11.4907 9.55765 11.6663 9.99967 11.6663C10.4417 11.6663 10.8656 11.4907 11.1782 11.1782C11.4907 10.8656 11.6663 10.4417 11.6663 9.99967C11.6663 9.55765 11.4907 9.13372 11.1782 8.82116C10.8656 8.5086 10.4417 8.33301 9.99967 8.33301C9.55765 8.33301 9.13372 8.5086 8.82116 8.82116C8.5086 9.13372 8.33301 9.55765 8.33301 9.99967ZM8.33301 4.99967C8.33301 5.4417 8.5086 5.86563 8.82116 6.17819C9.13372 6.49075 9.55765 6.66634 9.99967 6.66634C10.4417 6.66634 10.8656 6.49075 11.1782 6.17819C11.4907 5.86563 11.6663 5.4417 11.6663 4.99967C11.6663 4.55765 11.4907 4.13372 11.1782 3.82116C10.8656 3.5086 10.4417 3.33301 9.99967 3.33301C9.55765 3.33301 9.13372 3.5086 8.82116 3.82116C8.5086 4.13372 8.33301 4.55765 8.33301 4.99967ZM8.33301 14.9997C8.33301 15.4417 8.5086 15.8656 8.82116 16.1782C9.13372 16.4907 9.55765 16.6663 9.99967 16.6663C10.4417 16.6663 10.8656 16.4907 11.1782 16.1782C11.4907 15.8656 11.6663 15.4417 11.6663 14.9997C11.6663 14.5576 11.4907 14.1337 11.1782 13.8212C10.8656 13.5086 10.4417 13.333 9.99967 13.333C9.55765 13.333 9.13372 13.5086 8.82116 13.8212C8.5086 14.1337 8.33301 14.5576 8.33301 14.9997Z" fill="#2A2E34"/>
</svg>
