<svg width="20" height="20" viewBox="0 0 20 20" fill="none" xmlns="http://www.w3.org/2000/svg">
<path d="M1.66602 6.66667C1.66602 6.66667 5.39697 2.5 9.99935 2.5C14.6017 2.5 18.3327 6.66667 18.3327 6.66667" stroke="#75757A" stroke-width="1.25" stroke-linecap="round"/>
<path d="M17.9527 10.871C18.206 11.2262 18.3327 11.4039 18.3327 11.6668C18.3327 11.9297 18.206 12.1074 17.9527 12.4627C16.8143 14.059 13.907 17.5002 9.99935 17.5002C6.09167 17.5002 3.18443 14.059 2.04605 12.4627C1.79269 12.1074 1.66602 11.9297 1.66602 11.6668C1.66602 11.4039 1.79269 11.2262 2.04605 10.871C3.18443 9.27466 6.09167 5.8335 9.99935 5.8335C13.907 5.8335 16.8143 9.27466 17.9527 10.871Z" stroke="#75757A" stroke-width="1.25"/>
<path d="M12.5 11.6665C12.5 10.2858 11.3807 9.1665 10 9.1665C8.61925 9.1665 7.5 10.2858 7.5 11.6665C7.5 13.0473 8.61925 14.1665 10 14.1665C11.3807 14.1665 12.5 13.0473 12.5 11.6665Z" stroke="#75757A" stroke-width="1.25"/>
</svg>
