<svg width="20" height="20" viewBox="0 0 20 20" fill="none" xmlns="http://www.w3.org/2000/svg">
<path d="M10 13.7499V12.0833" stroke="#808080" stroke-width="1.25" stroke-linecap="round"/>
<path d="M3.55618 15.7039C3.74358 17.0958 4.89645 18.1862 6.29939 18.2507C7.4799 18.305 8.67909 18.3333 9.99967 18.3333C11.3203 18.3333 12.5194 18.305 13.6999 18.2507C15.1029 18.1862 16.2558 17.0958 16.4432 15.7039C16.5655 14.7956 16.6663 13.8647 16.6663 12.9167C16.6663 11.9687 16.5655 11.0378 16.4432 10.1294C16.2558 8.7375 15.1029 7.64707 13.6999 7.58257C12.5194 7.52831 11.3203 7.5 9.99967 7.5C8.67909 7.5 7.4799 7.52831 6.29939 7.58257C4.89645 7.64707 3.74358 8.7375 3.55618 10.1294C3.43387 11.0378 3.33301 11.9687 3.33301 12.9167C3.33301 13.8647 3.43387 14.7956 3.55618 15.7039Z" stroke="#808080" stroke-width="1.25"/>
<path d="M6.25 7.50008V5.41675C6.25 3.34568 7.92893 1.66675 10 1.66675C12.0711 1.66675 13.75 3.34568 13.75 5.41675V7.50008" stroke="#808080" stroke-width="1.25" stroke-linecap="round" stroke-linejoin="round"/>
</svg>
