<svg width="40" height="40" viewBox="0 0 40 40" fill="none" xmlns="http://www.w3.org/2000/svg">
<rect x="0.5" y="0.5" width="39" height="39" rx="19.5" stroke="white"/>
<path d="M19.9993 28.3332C24.6017 28.3332 28.3327 24.6022 28.3327 19.9998C28.3327 15.3975 24.6017 11.6665 19.9993 11.6665C15.397 11.6665 11.666 15.3975 11.666 19.9998C11.666 21.1489 11.8986 22.2437 12.3192 23.2396C12.5517 23.7899 12.6679 24.0652 12.6823 24.2732C12.6967 24.4812 12.6355 24.7099 12.513 25.1675L11.666 28.3332L14.8317 27.4862C15.2892 27.3638 15.518 27.3025 15.726 27.3169C15.934 27.3313 16.2092 27.4475 16.7596 27.68C17.7556 28.1006 18.8503 28.3332 19.9993 28.3332Z" stroke="white" stroke-width="1.25" stroke-linejoin="round"/>
<path d="M17.1574 20.3146L17.8832 19.4132C18.1891 19.0332 18.5672 18.6796 18.5969 18.1737C18.6043 18.0459 18.5145 17.4723 18.3347 16.325C18.264 15.8742 17.843 15.8335 17.4784 15.8335C17.0033 15.8335 16.7657 15.8335 16.5298 15.9413C16.2316 16.0775 15.9255 16.4604 15.8583 16.7813C15.8051 17.0351 15.8446 17.2101 15.9236 17.5599C16.2592 19.0458 17.0463 20.5133 18.2669 21.7339C19.4875 22.9545 20.955 23.7417 22.4409 24.0772C22.7907 24.1562 22.9657 24.1957 23.2196 24.1425C23.5404 24.0753 23.9233 23.7692 24.0596 23.471C24.1673 23.2351 24.1673 22.9976 24.1673 22.5224C24.1673 22.1577 24.1267 21.7368 23.6757 21.6662C22.5285 21.4863 21.9549 21.3965 21.8271 21.4039C21.3212 21.4336 20.9676 21.8117 20.5877 22.1176L19.6862 22.8433" stroke="white" stroke-width="1.25"/>
</svg>
