<svg width="20" height="20" viewBox="0 0 20 20" fill="none" xmlns="http://www.w3.org/2000/svg">
<path d="M9.16602 10.8337H4.99935C4.76324 10.8337 4.56546 10.7537 4.40602 10.5937C4.24657 10.4337 4.16657 10.2359 4.16602 10.0003C4.16546 9.76477 4.24546 9.567 4.40602 9.40699C4.56657 9.24699 4.76435 9.167 4.99935 9.167H9.16602V5.00033C9.16602 4.76422 9.24602 4.56644 9.40602 4.407C9.56602 4.24755 9.7638 4.16755 9.99935 4.167C10.2349 4.16644 10.433 4.24644 10.5935 4.407C10.7541 4.56755 10.8338 4.76533 10.8327 5.00033V9.167H14.9994C15.2355 9.167 15.4335 9.24699 15.5935 9.40699C15.7535 9.567 15.8332 9.76477 15.8327 10.0003C15.8321 10.2359 15.7521 10.4339 15.5927 10.5945C15.4332 10.7551 15.2355 10.8348 14.9994 10.8337H10.8327V15.0003C10.8327 15.2364 10.7527 15.4345 10.5927 15.5945C10.4327 15.7545 10.2349 15.8342 9.99935 15.8337C9.7638 15.8331 9.56602 15.7531 9.40602 15.5937C9.24602 15.4342 9.16602 15.2364 9.16602 15.0003V10.8337Z" fill="#2A2E34"/>
</svg>
