<svg width="40" height="40" viewBox="0 0 40 40" fill="none" xmlns="http://www.w3.org/2000/svg">
<path d="M13.484 19.3831H5.66732C5.80065 11.5998 7.33398 10.3165 12.1173 7.48312C12.6673 7.14979 12.8507 6.44979 12.5173 5.88312C12.2007 5.33312 11.484 5.14979 10.934 5.48312C5.30065 8.81646 3.33398 10.8498 3.33398 20.5331V29.5165C3.33398 32.3665 5.65065 34.6665 8.48398 34.6665H13.484C16.4173 34.6665 18.634 32.4498 18.634 29.5165V24.5165C18.634 21.5998 16.4173 19.3831 13.484 19.3831Z" fill="#009EC4"/>
<path d="M31.5163 19.3831H23.6996C23.8329 11.5998 25.3663 10.3165 30.1496 7.48312C30.6996 7.14979 30.8829 6.44979 30.5496 5.88312C30.2163 5.33312 29.5163 5.14979 28.9496 5.48312C23.3163 8.81646 21.3496 10.8498 21.3496 20.5498V29.5331C21.3496 32.3831 23.6663 34.6831 26.4996 34.6831H31.4996C34.4329 34.6831 36.6496 32.4665 36.6496 29.5331V24.5331C36.6663 21.5998 34.4496 19.3831 31.5163 19.3831Z" fill="#009EC4"/>
</svg>
