<svg width="20" height="20" viewBox="0 0 20 20" fill="none" xmlns="http://www.w3.org/2000/svg">
<path d="M15.9264 8.87421C15.9147 10.047 15.609 11.1982 15.0375 12.2224C14.3873 13.4102 13.4106 14.387 12.2227 15.0372C10.8664 15.7655 9.3085 16.0285 7.78827 15.7858C6.26804 15.543 4.86954 14.8079 3.80755 13.6933C2.74557 12.5788 2.07883 11.1464 1.90973 9.61621C1.74063 8.08604 2.07853 6.54266 2.87153 5.22311C3.66452 3.90356 4.86877 2.88082 6.2993 2.31197C7.72984 1.74311 9.30757 1.65959 10.7902 2.07423C12.2728 2.48887 13.5783 3.37876 14.5062 4.6072C15.434 5.83565 15.933 7.33473 15.9264 8.87421Z" stroke="#808080" stroke-miterlimit="10" stroke-linecap="square"/>
<path d="M17.5708 17.5703C17.389 17.7537 17.1727 17.8993 16.9343 17.9987C16.6959 18.0981 16.4402 18.1492 16.1819 18.1492C15.9237 18.1492 15.6679 18.0981 15.4296 17.9987C15.1912 17.8993 14.9748 17.7537 14.793 17.5703L12.2227 15.037C13.4105 14.3868 14.3873 13.41 15.0375 12.2222L17.5708 14.7629C17.7587 14.9452 17.9082 15.1634 18.0102 15.4045C18.1122 15.6456 18.1648 15.9048 18.1648 16.1666C18.1648 16.4284 18.1122 16.6876 18.0102 16.9287C17.9082 17.1698 17.7587 17.388 17.5708 17.5703V17.5703Z" stroke="#808080" stroke-linecap="round" stroke-linejoin="round"/>
<path d="M5.4668 8.56309C5.4668 7.7419 5.79301 6.95435 6.37368 6.37368C6.95435 5.79301 7.7419 5.4668 8.56309 5.4668" stroke="#808080" stroke-linecap="round" stroke-linejoin="round"/>
</svg>
