<svg width="20" height="20" viewBox="0 0 20 20" fill="none" xmlns="http://www.w3.org/2000/svg">
<path d="M2.47217 8.74658V12.9147C2.47217 15.2726 2.47217 16.4515 3.2044 17.184C3.93663 17.9166 5.11514 17.9166 7.47217 17.9166H12.4722C14.8292 17.9166 16.0077 17.9166 16.7399 17.184C17.4722 16.4515 17.4722 15.2726 17.4722 12.9147V8.74658" stroke="white" stroke-width="1.25" stroke-linecap="round"/>
<path d="M12.4722 14.1611C11.9021 14.6671 10.9945 14.9945 9.97217 14.9945C8.94983 14.9945 8.04224 14.6671 7.47217 14.1611" stroke="white" stroke-width="1.25" stroke-linecap="round"/>
<path d="M8.41967 7.01564C8.18468 7.86431 7.33007 9.32824 5.70631 9.54041C4.27261 9.72774 3.18522 9.10191 2.90747 8.84024C2.60123 8.62808 1.9033 7.94918 1.73238 7.52484C1.56146 7.10051 1.76087 6.18113 1.9033 5.80629L2.47269 4.15764C2.61169 3.74354 2.93708 2.76413 3.27068 2.43285C3.60428 2.10158 4.27968 2.08716 4.55767 2.08716H10.3956C11.8983 2.10839 15.1839 2.07376 15.8334 2.08717C16.4829 2.10057 16.8733 2.64502 16.9872 2.8784C17.9563 5.22575 18.3332 6.57009 18.3332 7.14294C18.2067 7.75404 17.6832 8.90633 15.8334 9.41316C13.9109 9.93983 12.821 8.91533 12.4791 8.52199M7.62918 8.52199C7.89981 8.85441 8.74875 9.52349 9.97933 9.54041C11.21 9.55741 12.2726 8.69883 12.65 8.26743C12.7568 8.14013 12.9876 7.76247 13.2269 7.01564" stroke="white" stroke-width="1.25" stroke-linecap="round" stroke-linejoin="round"/>
</svg>
