<svg width="16" height="16" viewBox="0 0 16 16" fill="none" xmlns="http://www.w3.org/2000/svg">
<path d="M6.26345 3H5.56901C3.60482 3 2.62273 3 2.01254 3.58579C1.40234 4.17157 1.40234 5.11438 1.40234 7V9.66667C1.40234 11.5523 1.40234 12.4951 2.01254 13.0809C2.62273 13.6667 3.60482 13.6667 5.56901 13.6667H8.37343C10.3376 13.6667 11.3197 13.6667 11.9299 13.0809C12.3252 12.7013 12.4644 12.1719 12.5134 11.3333" stroke="#2A2E34" stroke-linecap="round" stroke-linejoin="round"/>
<path d="M10.7778 4.66683V2.5692C10.7778 2.43902 10.8877 2.3335 11.0233 2.3335C11.0884 2.3335 11.1509 2.35833 11.1969 2.40253L14.3517 5.43113C14.5089 5.58204 14.5972 5.78674 14.5972 6.00016C14.5972 6.21359 14.5089 6.41828 14.3517 6.5692L11.1969 9.59776C11.1509 9.64203 11.0884 9.66683 11.0233 9.66683C10.8877 9.66683 10.7778 9.5613 10.7778 9.4311V7.3335H8.7438C5.91667 7.3335 4.875 9.66683 4.875 9.66683V8.00016C4.875 6.15922 6.42957 4.66683 8.3472 4.66683H10.7778Z" stroke="#2A2E34" stroke-linecap="round" stroke-linejoin="round"/>
</svg>
