<svg width="20" height="20" viewBox="0 0 20 20" fill="none" xmlns="http://www.w3.org/2000/svg">
<path d="M12.0833 6.25016C12.0833 3.94898 10.2178 2.0835 7.91667 2.0835C5.61548 2.0835 3.75 3.94898 3.75 6.25016C3.75 8.55133 5.61548 10.4168 7.91667 10.4168C10.2178 10.4168 12.0833 8.55133 12.0833 6.25016Z" stroke="#656F7D" stroke-width="1.25" stroke-linecap="round" stroke-linejoin="round"/>
<path d="M2.08301 16.2498C2.08301 13.0282 4.69468 10.4165 7.91634 10.4165C8.81101 10.4165 9.65859 10.6179 10.4163 10.9778" stroke="#656F7D" stroke-width="1.25" stroke-linecap="round" stroke-linejoin="round"/>
<path d="M17.9163 14.1667V12.0833C16.2497 12.0833 14.9997 11.25 14.9997 11.25C14.9997 11.25 13.7497 12.0833 12.083 12.0833V14.1667C12.083 17.0833 14.9997 17.9167 14.9997 17.9167C14.9997 17.9167 17.9163 17.0833 17.9163 14.1667Z" stroke="#656F7D" stroke-width="1.25" stroke-linecap="round" stroke-linejoin="round"/>
</svg>
