<svg width="40" height="40" viewBox="0 0 40 40" fill="none" xmlns="http://www.w3.org/2000/svg">
<rect x="0.5" y="0.5" width="39" height="39" rx="19.5" stroke="white"/>
<path d="M22.0827 17.4998C22.0827 18.6504 21.1499 19.5832 19.9993 19.5832C18.8488 19.5832 17.916 18.6504 17.916 17.4998C17.916 16.3492 18.8488 15.4165 19.9993 15.4165C21.1499 15.4165 22.0827 16.3492 22.0827 17.4998Z" stroke="white" stroke-width="1.25"/>
<path d="M25.1858 24.1665C26.3479 25.8236 26.9038 26.7061 26.5727 27.4164C26.5395 27.4877 26.5006 27.5564 26.4564 27.6221C25.9776 28.3332 24.7402 28.3332 22.2655 28.3332H17.7358C15.2611 28.3332 14.0237 28.3332 13.5449 27.6221C13.5007 27.5564 13.4618 27.4877 13.4286 27.4164C13.0975 26.7061 13.6534 25.8236 14.8155 24.1665" stroke="white" stroke-width="1.25" stroke-linecap="round" stroke-linejoin="round"/>
<path d="M21.0472 24.5778C20.7661 24.8485 20.3904 24.9998 19.9995 24.9998C19.6085 24.9998 19.2328 24.8485 18.9518 24.5778C16.3779 22.0838 12.9287 19.2978 14.6108 15.2529C15.5203 13.0659 17.7035 11.6665 19.9995 11.6665C22.2955 11.6665 24.4787 13.0659 25.3882 15.2529C27.0682 19.2927 23.6273 22.0924 21.0472 24.5778Z" stroke="white" stroke-width="1.25"/>
</svg>
