<svg width="40" height="40" viewBox="0 0 40 40" fill="none" xmlns="http://www.w3.org/2000/svg">
<rect x="0.5" y="0.5" width="39" height="39" rx="19.5" stroke="white"/>
<path d="M11.666 15L17.4269 18.2641C19.5507 19.4675 20.448 19.4675 22.5718 18.2641L28.3327 15" stroke="white" stroke-width="1.25" stroke-linejoin="round"/>
<path d="M11.6792 21.2295C11.7336 23.7842 11.7609 25.0614 12.7035 26.0077C13.6461 26.9538 14.958 26.9868 17.5817 27.0527C19.1988 27.0933 20.7999 27.0933 22.417 27.0527C25.0408 26.9868 26.3526 26.9538 27.2953 26.0077C28.2378 25.0614 28.2651 23.7842 28.3195 21.2295C28.3371 20.4081 28.3371 19.5916 28.3195 18.7702C28.2651 16.2156 28.2378 14.9382 27.2953 13.9921C26.3526 13.0459 25.0408 13.0129 22.417 12.947C20.7999 12.9063 19.1988 12.9063 17.5817 12.947C14.958 13.0129 13.6461 13.0458 12.7035 13.992C11.7609 14.9382 11.7336 16.2155 11.6791 18.7702C11.6616 19.5916 11.6616 20.4081 11.6792 21.2295Z" stroke="white" stroke-width="1.25" stroke-linejoin="round"/>
</svg>
