<svg width="40" height="40" viewBox="0 0 40 40" fill="none" xmlns="http://www.w3.org/2000/svg">
<rect width="40" height="40" rx="10" fill="#EF4444"/>
<path d="M18.9307 28.3333C18.2488 28.3333 17.5975 28.0581 16.2948 27.5078C13.052 26.138 11.4307 25.4531 11.4307 24.301C11.4307 23.9784 11.4307 18.387 11.4307 15.8333M18.9307 28.3333V19.4623M18.9307 28.3333C19.4446 28.3333 19.864 28.1769 20.5973 27.8643M26.4307 15.8333V19.9999" stroke="white" stroke-width="1.25" stroke-linecap="round" stroke-linejoin="round"/>
<path d="M23.0967 22.5L25.5967 25M25.5967 25L28.0967 27.5M25.5967 25L23.0967 27.5M25.5967 25L28.0967 22.5" stroke="white" stroke-width="1.25" stroke-linecap="round"/>
<path d="M15.8689 18.0762L13.4346 16.8983C12.0986 16.2518 11.4307 15.9286 11.4307 15.4167C11.4307 14.9049 12.0986 14.5817 13.4346 13.9352L15.8689 12.7573C17.3714 12.0303 18.1226 11.6667 18.9307 11.6667C19.7387 11.6667 20.49 12.0302 21.9924 12.7573L24.4267 13.9352C25.7627 14.5817 26.4307 14.9049 26.4307 15.4167C26.4307 15.9286 25.7627 16.2518 24.4267 16.8983L21.9924 18.0762C20.49 18.8032 19.7387 19.1667 18.9307 19.1667C18.1226 19.1667 17.3714 18.8032 15.8689 18.0762Z" stroke="white" stroke-width="1.25" stroke-linecap="round" stroke-linejoin="round"/>
<path d="M13.9307 20L15.5973 20.8333" stroke="white" stroke-width="1.25" stroke-linecap="round" stroke-linejoin="round"/>
<path d="M23.097 13.3333L14.7637 17.4999" stroke="white" stroke-width="1.25" stroke-linecap="round" stroke-linejoin="round"/>
</svg>
