<svg width="40" height="40" viewBox="0 0 40 40" fill="none" xmlns="http://www.w3.org/2000/svg">
<rect width="40" height="40" rx="10" fill="#F97316"/>
<path d="M12.083 16.25V20M12.083 27.9167H21.2497C24.3923 27.9167 25.9638 27.9167 26.94 26.9403C27.9163 25.9641 27.9163 24.3927 27.9163 21.25V16.25" stroke="white" stroke-width="1.25" stroke-linecap="round" stroke-linejoin="round"/>
<path d="M13.2239 14.4288L12.083 16.2499H27.9163L26.8728 14.5108C26.1614 13.3251 25.8058 12.7323 25.2326 12.4078C24.6595 12.0833 23.9681 12.0833 22.5854 12.0833H17.4611C16.108 12.0833 15.4314 12.0833 14.8664 12.396C14.3015 12.7088 13.9423 13.2821 13.2239 14.4288Z" stroke="white" stroke-width="1.25" stroke-linecap="round" stroke-linejoin="round"/>
<path d="M20 16.2499V12.0833" stroke="white" stroke-width="1.25" stroke-linecap="round" stroke-linejoin="round"/>
<path d="M18.333 18.75H21.6663" stroke="white" stroke-width="1.25" stroke-linecap="round" stroke-linejoin="round"/>
<path d="M12.083 22.9167H14.583M12.083 25.4167H17.083" stroke="white" stroke-width="1.25" stroke-linecap="round" stroke-linejoin="round"/>
</svg>
