<svg width="40" height="40" viewBox="0 0 40 40" fill="none" xmlns="http://www.w3.org/2000/svg">
<rect width="40" height="40" rx="10" fill="#6366F1"/>
<path d="M22.68 19.1667C22.68 17.5558 21.3742 16.25 19.7633 16.25C18.1525 16.25 16.8467 17.5558 16.8467 19.1667C16.8467 20.7775 18.1525 22.0833 19.7633 22.0833C21.3742 22.0833 22.68 20.7775 22.68 19.1667Z" stroke="white" stroke-width="1.25" stroke-linecap="round" stroke-linejoin="round"/>
<path d="M22.6658 19.4583C22.9342 19.5396 23.2187 19.5833 23.5136 19.5833C25.1244 19.5833 26.4302 18.2775 26.4302 16.6667C26.4302 15.0558 25.1244 13.75 23.5136 13.75C22.0012 13.75 20.7576 14.9012 20.6113 16.3751" stroke="white" stroke-width="1.25" stroke-linecap="round" stroke-linejoin="round"/>
<path d="M18.9156 16.3751C18.7693 14.9012 17.5258 13.75 16.0133 13.75C14.4025 13.75 13.0967 15.0558 13.0967 16.6667C13.0967 18.2775 14.4025 19.5833 16.0133 19.5833C16.3082 19.5833 16.5928 19.5396 16.8611 19.4583" stroke="white" stroke-width="1.25" stroke-linecap="round" stroke-linejoin="round"/>
<path d="M28.097 23.7499C28.097 21.4488 26.045 19.5833 23.5137 19.5833" stroke="white" stroke-width="1.25" stroke-linecap="round" stroke-linejoin="round"/>
<path d="M24.3473 26.2499C24.3473 23.9488 22.2953 22.0833 19.764 22.0833C17.2327 22.0833 15.1807 23.9488 15.1807 26.2499" stroke="white" stroke-width="1.25" stroke-linecap="round" stroke-linejoin="round"/>
<path d="M16.014 19.5833C13.4827 19.5833 11.4307 21.4488 11.4307 23.7499" stroke="white" stroke-width="1.25" stroke-linecap="round" stroke-linejoin="round"/>
</svg>
