<svg width="40" height="40" viewBox="0 0 40 40" fill="none" xmlns="http://www.w3.org/2000/svg">
<rect width="40" height="40" rx="10" fill="#22C55E"/>
<path d="M27.2637 15.8333V19.9999M12.2637 15.8333C12.2637 18.387 12.2637 23.9784 12.2637 24.301C12.2637 25.4531 13.885 26.138 17.1278 27.5078C18.4305 28.0581 19.0818 28.3333 19.7637 28.3333V19.4623" stroke="white" stroke-width="1.25" stroke-linecap="round" stroke-linejoin="round"/>
<path d="M22.2637 25.8333C22.2637 25.8333 22.9928 25.8333 23.722 27.5C23.722 27.5 26.0382 23.3333 28.097 22.5" stroke="white" stroke-width="1.25" stroke-linecap="round" stroke-linejoin="round"/>
<path d="M16.7019 18.0762L14.2676 16.8983C12.9316 16.2518 12.2637 15.9286 12.2637 15.4167C12.2637 14.9049 12.9316 14.5817 14.2676 13.9352L16.7019 12.7573C18.2043 12.0303 18.9556 11.6667 19.7637 11.6667C20.5718 11.6667 21.323 12.0302 22.8254 12.7573L25.2598 13.9352C26.5957 14.5817 27.2637 14.9049 27.2637 15.4167C27.2637 15.9286 26.5957 16.2518 25.2598 16.8983L22.8254 18.0762C21.323 18.8032 20.5718 19.1667 19.7637 19.1667C18.9556 19.1667 18.2043 18.8032 16.7019 18.0762Z" stroke="white" stroke-width="1.25" stroke-linecap="round" stroke-linejoin="round"/>
<path d="M14.7637 20L16.4303 20.8333" stroke="white" stroke-width="1.25" stroke-linecap="round" stroke-linejoin="round"/>
<path d="M23.93 13.3333L15.5967 17.4999" stroke="white" stroke-width="1.25" stroke-linecap="round" stroke-linejoin="round"/>
</svg>
